# xmcd
#
# Track frame offsets:
#       150
#       19599
#       38852
#       59521
#       78620
#       98446
#       114250
#       136262
#       150085
#       166551
#       180997
#       197842
#       213970
#       226205
#
# Disc length: 3298 seconds
#
# Revision: 1
# Processed by: cddbd v1.5.2PL0 Copyright (c) Steve Scherf et al.
# Submitted via: MusiCat 1.1
#
DISCID=9b0ce00e
DTITLE=The Back Porch Swing Band - The Back Porch Swing Band #3
DYEAR=1900
DGENRE=
TTITLE0=I'm Gonna Sit Right Down and Write Myself a Letter
TTITLE1=Smoke, Smoke, Smoke That Cigarette
TTITLE2=Frim Fram Sauce
TTITLE3=Deep Water
TTITLE4=Don't Fence Me In
TTITLE5=TugBoat - Thats What I Like About the South
TTITLE6=Crazy
TTITLE7=Long Gone John
TTITLE8=Stranger Things Have Happened
TTITLE9=Deed I Do
TTITLE10=Peach Pickin Time in Georgia
TTITLE11=Ain't Misbehavin
TTITLE12=Lonestar Rag
TTITLE13=It's Only a Paper Moon
EXTD=\n\n
EXTT0=
EXTT1=
EXTT2=
EXTT3=
EXTT4=
EXTT5=
EXTT6=
EXTT7=
EXTT8=
EXTT9=
EXTT10=
EXTT11=
EXTT12=
EXTT13=
PLAYORDER=
